<?xml version="1.0" encoding="UTF-8"?>
<!DOCTYPE svg PUBLIC "-//W3C//DTD SVG 1.1//EN" "http://www.w3.org/Graphics/SVG/1.1/DTD/svg11.dtd">
<svg version="1.1" xmlns="http://www.w3.org/2000/svg" xmlns:xlink="http://www.w3.org/1999/xlink" x="0" y="0" width="350" height="97" viewBox="0, 0, 350, 97">
  <defs>
    <clipPath id="Clip_1">
      <path d="M0.06,0.176 L349.338,0.176 L349.338,96.94 L0.06,96.94 z"/>
    </clipPath>
  </defs>
  <g id="Layer_1">
    <g clip-path="url(#Clip_1)">
      <path d="M76.576,31.553 L76.567,31.535 C75.945,30.462 74.787,29.795 73.548,29.795 L67.145,29.795 C65.902,29.795 64.744,30.464 64.123,31.541 L38.645,75.68 L22.032,44.393 C17.35,35.148 12.815,29.795 3.487,29.795 C3.482,29.795 3.475,29.795 3.471,29.795 C1.557,29.798 -0,31.363 -0,33.285 L-0,38.883 C-0,40.797 1.58,42.362 3.523,42.373 C6.362,42.386 7.584,44.15 11.588,51.708 L35.456,95.184 C36.059,96.289 37.226,96.984 38.519,96.999 C39.756,96.999 40.912,96.333 41.533,95.265 L76.562,35.039 C77.186,33.966 77.191,32.631 76.576,31.553" fill="#0A0B09"/>
      <path d="M237.458,80.742 C234.642,80.742 232.058,82.139 230.543,84.478 C229.039,86.8 228.845,89.62 230.008,92.21 C231.117,94.675 233.45,96.47 236.096,96.891 C236.542,96.962 236.994,96.999 237.445,96.999 C239.42,96.999 241.323,96.304 242.8,95.046 C244.617,93.494 245.659,91.218 245.659,88.802 C245.659,84.359 241.98,80.742 237.458,80.742" fill="#4A5998"/>
      <path d="M345.867,29.795 C345.86,29.795 345.854,29.795 345.848,29.795 C336.524,29.795 331.994,35.138 327.336,44.338 L310.9,75.287 L295.191,44.346 C290.542,35.169 286.073,29.84 276.97,29.759 L266.655,29.75 L266.655,4.082 C266.655,2.158 265.09,0.593 263.164,0.593 L257.792,0.593 C255.868,0.593 254.304,2.158 254.304,4.082 L254.304,29.749 L245.451,29.749 C243.528,29.749 241.962,31.313 241.962,33.237 L241.962,38.379 C241.962,40.304 243.528,41.869 245.451,41.869 L254.304,41.869 L254.304,74.607 C254.304,82.124 256.492,87.921 260.812,91.839 C264.567,95.242 269.763,97 275.979,97 C277.118,97 278.294,96.94 279.499,96.822 C281.295,96.647 282.65,95.154 282.65,93.349 L282.65,88.546 C282.65,87.612 282.285,86.735 281.623,86.076 C280.965,85.419 280.093,85.06 279.162,85.06 C279.159,85.06 279.154,85.06 279.148,85.06 L278.488,85.063 C275.712,85.08 271.506,85.117 269.099,82.725 C267.478,81.111 266.655,78.379 266.655,74.607 L266.655,41.869 L275.963,41.869 C279.218,41.869 280.556,43.73 284.432,51.066 L307.573,94.788 C307.982,95.827 308.862,96.608 309.948,96.886 C311.472,97.28 313.12,96.563 313.88,95.188 L337.5,52.176 L337.768,51.673 C341.755,44.146 342.975,42.385 345.815,42.372 C347.757,42.361 349.338,40.796 349.338,38.882 L349.338,33.284 C349.338,31.361 347.781,29.796 345.867,29.795" fill="#4A5998"/>
      <path d="M131.101,66.022 C130.119,75.936 122.212,83.843 112.3,84.825 C105.946,85.461 99.734,83.244 95.251,78.762 C90.77,74.281 88.56,68.067 89.19,61.715 C90.172,51.803 98.078,43.895 107.992,42.913 C108.703,42.843 109.413,42.808 110.119,42.808 C115.715,42.808 121.06,44.996 125.039,48.976 C129.521,53.458 131.73,59.671 131.101,66.022 z M146.326,84.279 L146.175,84.235 C143.523,83.429 143.235,78.964 143.235,77.074 L143.235,3.665 C143.235,1.741 141.67,0.176 139.745,0.176 L134.372,0.176 C132.449,0.176 130.884,1.741 130.884,3.67 L131,38.297 C124.43,32.882 116.006,30.187 107.384,30.835 C91.495,32.03 78.722,44.372 77.012,60.182 C75.978,69.734 78.915,78.9 85.28,85.992 C91.56,92.986 100.549,96.999 109.943,96.999 C118.404,96.999 126.32,93.875 132.461,88.161 C133.934,90.643 136.506,93.191 138.236,94.302 C140.126,95.515 142.368,96.307 144.723,96.595 C145.906,96.739 147.097,96.367 147.99,95.576 C148.88,94.786 149.391,93.651 149.391,92.461 L149.391,88.262 C149.391,86.427 148.164,84.839 146.326,84.279" fill="#0A0B09"/>
    </g>
    <path d="M197.107,62.977 L218.56,35.044 C219.375,33.982 219.514,32.576 218.921,31.374 C218.33,30.174 217.131,29.429 215.793,29.429 L208.935,29.429 C207.86,29.429 206.826,29.938 206.172,30.789 L189.395,52.569 L172.614,30.786 C171.947,29.923 170.94,29.429 169.852,29.429 L163.221,29.429 C161.899,29.429 160.671,30.194 160.093,31.375 C159.499,32.579 159.639,33.985 160.454,35.042 L181.797,62.863 L169.379,79.121 C168.49,80.304 166.525,82.245 166.345,82.42 C165.038,83.384 162.793,84.112 162.505,84.202 C162.428,84.223 162.353,84.249 162.279,84.273 L162.129,84.327 C160.46,84.962 159.367,86.475 159.367,88.207 L159.367,92.407 C159.367,94.729 161.339,96.55 163.856,96.55 C169.262,96.55 175.764,90.712 178.085,87.862 L189.487,73.244 L206.401,95.274 C207.056,96.125 208.088,96.632 209.162,96.632 L215.793,96.632 C217.127,96.632 218.326,95.889 218.924,94.686 C219.515,93.484 219.375,92.082 218.563,91.025 L197.107,62.977" fill="#0A0B09"/>
  </g>
</svg>
